HIERARCHY
ROOT Hips
{
	OFFSET 0.000000 0.000000 0.000000
	CHANNELS 6 Xposition Yposition Zposition Zrotation Yrotation Xrotation 
	JOINT LHipJoint
	{
		OFFSET 0.000000 0.000000 0.000000
		CHANNELS 3 Zrotation Yrotation Xrotation
		JOINT LeftUpLeg
		{
			OFFSET 1.363060 -1.794630 0.839290
			CHANNELS 3 Zrotation Yrotation Xrotation
			JOINT LeftLeg
			{
				OFFSET 2.448110 -6.726130 0.000000
				CHANNELS 3 Zrotation Yrotation Xrotation
				JOINT LeftFoot
				{
					OFFSET 2.562200 -7.039590 0.000000
					CHANNELS 3 Zrotation Yrotation Xrotation
					JOINT LeftToeBase
					{
						OFFSET 0.157640 -0.433110 2.322550
						CHANNELS 3 Zrotation Yrotation Xrotation
						End Site
						{
							OFFSET 0.000000 0.000000 0.000000
						}
					}
				}
			}
		}
	}
	JOINT RHipJoint
	{
		OFFSET 0.000000 0.000000 0.000000
		CHANNELS 3 Zrotation Yrotation Xrotation
		JOINT RightUpLeg
		{
			OFFSET -1.305520 -1.794630 0.839290
			CHANNELS 3 Zrotation Yrotation Xrotation
			JOINT RightLeg
			{
				OFFSET -2.542530 -6.985550 0.000000
				CHANNELS 3 Zrotation Yrotation Xrotation
				JOINT RightFoot
				{
					OFFSET -2.568260 -7.056230 0.000000
					CHANNELS 3 Zrotation Yrotation Xrotation
					JOINT RightToeBase
					{
						OFFSET -0.164730 -0.452590 2.363150
						CHANNELS 3 Zrotation Yrotation Xrotation
						End Site
						{
							OFFSET 0.000000 0.000000 0.000000
						}
					}
				}
			}
		}
	}
}
MOTION
Frames: 28
Frame Time: 0.008333
-11.412334 16.681380 -2.907629 2.158600 81.652010 19.205380 -9.855481 -0.873649 1.021136 -7.259034 3.773215 -45.528007 -1.857153 0.860070 19.550161 0.956307 6.002901 10.157650 2.197900 0.000000 -34.740800 10.331132 -2.656095 -1.515966 -0.497336 -2.377600 -0.639063 1.178224 -2.168258 27.485214 0.861271 10.935552 6.783766 2.356699 0.000000 -88.710200
-11.252517 16.702047 -2.926635 4.050377 81.511281 21.085253 -9.822295 -0.849680 0.913894 -7.717946 3.775121 -45.264974 -1.863046 0.895075 20.536590 0.994393 6.268804 9.253135 2.191100 0.000000 -34.271300 10.519361 -2.694937 -1.495119 -1.109583 -2.538422 -1.976038 0.907869 -2.402996 30.160864 0.741748 10.862959 8.739348 2.740300 0.000000 -88.672900
-11.097258 16.725026 -2.946905 5.413751 81.334261 22.451831 -9.781738 -0.821536 0.824117 -8.076141 3.720886 -44.910760 -1.868337 0.912232 21.363054 1.038230 6.545105 8.200370 2.162800 -0.000000 -34.008999 10.698438 -2.697708 -1.472761 -1.600464 -2.616865 -3.398711 0.623431 -2.615000 32.926771 0.582920 10.545143 10.828847 3.087600 -0.000000 -87.915901
-10.946500 16.750014 -2.968516 6.257398 81.118923 23.307599 -9.742197 -0.790721 0.747864 -8.338780 3.640453 -44.473522 -1.873070 0.914839 22.024736 1.087520 6.825899 7.077445 2.115800 -0.000001 -33.912900 10.859874 -2.663148 -1.448207 -1.962356 -2.608380 -4.881460 0.333503 -2.799255 35.744025 0.386405 9.959453 13.010067 3.353800 -0.000000 -86.363200
-10.800040 16.776734 -2.991226 6.658055 80.870397 23.722126 -9.708711 -0.759063 0.679248 -8.521684 3.559784 -43.958112 -1.877124 0.905291 22.519722 1.141359 7.111150 5.959970 2.057000 -0.000001 -33.935900 11.000671 -2.593003 -1.422262 -2.202792 -2.523826 -6.400526 0.048975 -2.954179 38.573876 0.156416 9.099483 15.219831 3.490900 -0.000000 -84.004300
-10.657580 16.804969 -3.014829 6.676363 80.594838 23.747922 -9.685039 -0.727602 0.612595 -8.637279 3.505339 -43.372630 -1.879857 0.886700 22.855317 1.197952 7.398128 4.911276 1.993400 0.000000 -34.028700 11.118714 -2.490764 -1.396560 -2.326868 -2.376794 -7.930924 -0.219642 -3.080370 41.375464 -0.100563 7.963705 17.378844 3.452200 0.000000 -80.944900
-10.518771 16.834574 -3.038928 6.398717 80.301351 23.464673 -9.672597 -0.696753 0.542580 -8.701702 3.497536 -42.723422 -1.880907 0.861566 23.041375 1.255027 7.684850 3.980931 1.932100 0.000000 -34.148500 11.214798 -2.362105 -1.373302 -2.346405 -2.186004 -9.451016 -0.463869 -3.181447 44.109844 -0.376228 6.561833 19.397622 3.201800 0.000000 -77.421401
-10.383158 16.865479 -3.063299 5.877827 79.998748 22.921601 -9.672586 -0.666387 0.465718 -8.724220 3.553726 -42.021846 -1.880081 0.832856 23.094506 1.309705 7.963213 3.198430 1.878000 0.000000 -34.266100 11.289029 -2.213581 -1.354368 -2.266931 -1.965906 -10.942407 -0.679285 -3.261894 46.738473 -0.661536 4.912839 21.191070 2.722400 -0.000001 -73.783000
-10.250443 16.897537 -3.086976 5.275546 79.699171 22.275220 -9.681192 -0.635726 0.378340 -8.733953 3.674107 -41.265854 -1.878900 0.800574 23.022754 1.359743 8.232816 2.578360 1.836200 -0.000000 -34.353700 11.348396 -2.053321 -1.341351 -2.120155 -1.736864 -12.394812 -0.864656 -3.330435 49.241413 -0.947082 3.057738 22.665393 2.023700 -0.000000 -70.222100
-10.119999 16.930694 -3.110198 4.538046 79.408587 21.478240 -9.701269 -0.604038 0.282867 -8.718716 3.868837 -40.480582 -1.877330 0.768537 22.853026 1.401985 8.472311 2.111022 1.804200 -0.000000 -34.413199 11.389136 -1.887262 -1.334358 -1.890839 -1.501297 -13.801199 -1.023823 -3.389460 51.589321 -1.224416 1.043548 23.762125 1.139100 0.000000 -67.082699
-9.991753 16.964738 -3.132184 3.782955 79.137172 20.644912 -9.728984 -0.570357 0.177847 -8.699062 4.130022 -39.662918 -1.877758 0.736314 22.595593 1.434418 8.673507 1.777971 1.780600 -0.000000 -34.439200 11.417203 -1.721729 -1.334406 -1.605252 -1.271232 -15.157459 -1.161272 -3.446034 53.775532 -1.485966 -1.057357 24.421031 0.130300 0.000000 -64.454200
-9.865066 16.999532 -3.152957 2.988354 78.891807 19.764845 -9.764439 -0.533891 0.069593 -8.667365 4.447012 -38.835157 -1.880983 0.705082 22.270604 1.455484 8.820083 1.547231 1.759900 -0.000000 -34.442100 11.431985 -1.561111 -1.339868 -1.258623 -1.051127 -16.473333 -1.282834 -3.501674 55.791406 -1.724783 -3.161890 24.610129 -0.923500 0.000000 -62.319500
-9.739687 17.034815 -3.172256 2.181063 78.679493 18.872369 -9.805618 -0.494036 -0.037083 -8.625838 4.801658 -38.007693 -1.888179 0.674387 21.890841 1.464761 8.903839 1.385055 1.737100 -0.000001 -34.431200 11.435559 -1.408648 -1.349149 -0.859427 -0.845611 -17.758301 -1.393048 -3.558191 57.634291 -1.935215 -5.178978 24.319688 -1.933800 0.000000 -60.583900
-9.615583 17.070210 -3.189898 1.381080 78.504742 17.989635 -9.850674 -0.450585 -0.140017 -8.577157 5.179749 -37.182941 -1.900569 0.643751 21.466262 1.461865 8.916680 1.258787 1.706700 0.000000 -34.417900 11.429626 -1.266009 -1.361313 -0.416564 -0.655724 -19.014224 -1.494511 -3.616034 59.299396 -2.113347 -7.024036 23.575700 -2.820000 -0.000000 -59.187000
-9.492682 17.105359 -3.205865 0.583510 78.370204 17.118410 -9.898322 -0.403730 -0.235105 -8.518617 5.564943 -36.369314 -1.918432 0.612636 21.006141 1.447339 8.855450 1.140810 1.664600 0.000000 -34.413200 11.414684 -1.133728 -1.373667 0.066246 -0.478997 -20.247880 -1.587654 -3.673593 60.780901 -2.256314 -8.625336 22.434285 -3.520201 -0.000000 -58.048800
-9.370535 17.139988 -3.220121 -0.207760 78.278228 16.276294 -9.946579 -0.353686 -0.315173 -8.450070 5.929939 -35.579613 -1.940836 0.579364 20.513064 1.423793 8.731795 1.014554 1.611500 -0.000001 -34.428600 11.391584 -1.011646 -1.382012 0.581035 -0.314062 -21.476640 -1.670896 -3.729061 62.077212 -2.361078 -9.922600 20.961467 -3.994300 -0.000000 -56.928600
-9.249562 17.173605 -3.232736 -1.004298 78.226244 15.445177 -9.995055 -0.301434 -0.383477 -8.370895 6.277511 -34.807985 -1.967830 0.544347 19.993910 1.391336 8.544052 0.869265 1.545900 -0.000000 -34.467199 11.360347 -0.898342 -1.385404 1.123045 -0.153095 -22.689174 -1.741376 -3.779845 63.178980 -2.428604 -10.897373 19.268738 -4.243600 -0.000000 -55.927100
-9.129495 17.205991 -3.243686 -1.790895 78.213229 14.648901 -10.042036 -0.247577 -0.436221 -8.284788 6.588825 -34.060573 -1.997768 0.506026 19.445992 1.353180 8.312725 0.708534 1.473100 0.000000 -34.532700 11.322044 -0.792529 -1.380402 1.679761 0.005566 -23.897112 -1.795892 -3.824377 64.085840 -2.458994 -11.540090 17.452300 -4.287000 -0.000000 -54.867399
-9.010390 17.236901 -3.253015 -2.564047 78.234693 13.889364 -10.086899 -0.193077 -0.475671 -8.194728 6.863518 -33.334315 -2.029490 0.464280 18.869242 1.311184 8.051401 0.541086 1.397100 -0.000000 -34.621800 11.277145 -0.692021 -1.366286 2.241550 0.165238 -25.098089 -1.831945 -3.861099 64.794781 -2.455234 -11.872174 15.619614 -4.167900 -0.000000 -53.768400
-8.892514 17.266024 -3.260844 -3.336888 78.285185 13.145882 -10.130122 -0.138911 -0.506269 -8.100196 7.113980 -32.625853 -2.062093 0.420237 18.270531 1.266033 7.766132 0.377019 1.320300 -0.000000 -34.727900 11.225705 -0.595365 -1.343229 2.804099 0.328136 -26.282770 -1.848397 -3.888764 65.304927 -2.421857 -11.933413 13.866241 -3.938700 -0.000000 -52.679400
-8.775921 17.293232 -3.267241 -4.107434 78.359003 12.415843 -10.171776 -0.085788 -0.531761 -8.003909 7.349706 -31.933352 -2.094702 0.374675 17.654394 1.218897 7.466979 0.229177 1.246200 0.000000 -34.841400 11.168322 -0.501291 -1.311814 3.360023 0.493219 -27.446901 -1.845335 -3.907137 65.618619 -2.363814 -11.769118 12.261542 -3.647500 -0.000001 -51.635700
-8.660525 17.318548 -3.272139 -4.850125 78.451258 11.722889 -10.211486 -0.034206 -0.555041 -7.911625 7.573358 -31.253579 -2.126265 0.327853 17.021456 1.171673 7.169818 0.112337 1.179000 -0.000000 -34.955200 11.105908 -0.408423 -1.272967 3.898118 0.658561 -28.588943 -1.823865 -3.916573 65.737816 -2.287004 -11.430022 10.856534 -3.334800 -0.000000 -50.709800
-8.546462 17.341931 -3.275590 -5.566644 78.556439 11.057777 -10.249943 0.015404 -0.580914 -7.824015 7.800536 -30.584513 -2.156732 0.281423 16.382669 1.124324 6.875392 0.031651 1.118600 -0.000000 -35.062300 11.038719 -0.316522 -1.228477 4.415416 0.822349 -29.700143 -1.785759 -3.917552 65.667229 -2.196820 -10.964538 9.669045 -3.027900 -0.000000 -49.967300
-8.433734 17.363388 -3.277616 -6.249932 78.669312 10.422873 -10.287478 0.062774 -0.613050 -7.742594 8.041694 -29.925372 -2.186222 0.236720 15.748466 1.077018 6.584987 -0.011690 1.064700 0.000000 -35.159500 10.967060 -0.225522 -1.180011 4.908309 0.982936 -30.774720 -1.732661 -3.910822 65.411568 -2.097835 -10.413864 8.691909 -2.742000 0.000000 -49.456501
-8.322236 17.383012 -3.278150 -6.880954 78.787352 9.836851 -10.324054 0.107970 -0.652120 -7.670171 8.297530 -29.278715 -2.214862 0.194356 15.128675 1.030370 6.301860 -0.022229 1.016600 0.000000 -35.245500 10.891136 -0.135901 -1.127820 5.372190 1.139329 -31.812009 -1.665874 -3.897202 64.976401 -1.993815 -9.811916 7.899816 -2.483100 0.000001 -49.209700
-8.212117 17.400795 -3.277238 -7.464766 78.905936 9.287752 -10.360201 0.150765 -0.702112 -7.604552 8.581140 -28.642062 -2.243730 0.155886 14.537603 0.983175 6.015239 -0.011909 0.970700 0.000000 -35.326800 10.810954 -0.048631 -1.073970 5.808273 1.291546 -32.800836 -1.585844 -3.877530 64.366961 -1.886838 -9.181825 7.246377 -2.249200 0.000001 -49.202401
-8.103319 17.416779 -3.274842 -7.985147 79.022678 8.790268 -10.395728 0.191109 -0.763852 -7.546589 8.891334 -28.013863 -2.273411 0.121600 13.983033 0.935422 5.722537 0.006775 0.924900 -0.000000 -35.410700 10.726616 0.035477 -1.019188 6.213849 1.440792 -33.736110 -1.492544 -3.852490 63.587377 -1.778503 -8.540816 6.686585 -2.037200 -0.000000 -49.412799
-7.995541 17.431062 -3.270889 -8.425891 79.138511 8.369481 -10.429911 0.229344 -0.832109 -7.497756 9.210657 -27.405798 -2.303672 0.090928 13.473353 0.888497 5.430014 0.019420 0.878901 -0.000000 -35.501201 10.637580 0.115866 -0.960489 6.586773 1.590801 -34.627241 -1.385839 -3.821895 62.641328 -1.670399 -7.903648 6.182384 -1.844600 -0.000001 -49.815000
